<svg width="161" height="50" viewBox="0 0 161 50" fill="none" xmlns="http://www.w3.org/2000/svg">
<g filter="url(#filter0_d_5_92)">
<path d="M14.264 33H4.52L8.888 12.36H18.728L14.264 33ZM19.976 6.072C19.976 6.808 19.816 7.448 19.496 7.992C19.208 8.536 18.808 9 18.296 9.384C17.816 9.768 17.256 10.056 16.616 10.248C15.976 10.44 15.32 10.536 14.648 10.536C13.368 10.536 12.296 10.232 11.432 9.624C10.568 9.016 10.136 8.056 10.136 6.744C10.136 6.04 10.28 5.416 10.568 4.872C10.856 4.296 11.24 3.832 11.72 3.48C12.232 3.096 12.808 2.808 13.448 2.616C14.12 2.424 14.808 2.328 15.512 2.328C16.76 2.328 17.816 2.632 18.68 3.24C19.544 3.848 19.976 4.792 19.976 6.072ZM31.9265 15.432C32.5985 14.792 33.3505 14.2 34.1825 13.656C34.9185 13.208 35.7825 12.792 36.7745 12.408C37.7665 12.024 38.8705 11.832 40.0865 11.832C41.7505 11.832 43.1265 12.264 44.2145 13.128C45.3025 13.96 45.8465 15.112 45.8465 16.584C45.8465 17 45.7985 17.512 45.7025 18.12C45.6065 18.696 45.4945 19.304 45.3665 19.944C45.2385 20.584 45.0945 21.24 44.9345 21.912C44.8065 22.552 44.6945 23.128 44.5985 23.64L42.5825 33H32.8385L35.4785 20.472C35.5425 20.056 35.6225 19.64 35.7185 19.224C35.8145 18.776 35.8625 18.376 35.8625 18.024C35.8625 17.544 35.7345 17.16 35.4785 16.872C35.2545 16.552 34.9025 16.392 34.4225 16.392C33.8465 16.392 33.2865 16.6 32.7425 17.016C32.2305 17.432 31.8305 17.784 31.5425 18.072L28.3745 33H18.5825L22.9505 12.36H30.7745L31.6385 15.432H31.9265ZM56.4515 33H46.7075L51.0755 12.36H60.9155L56.4515 33ZM62.1635 6.072C62.1635 6.808 62.0035 7.448 61.6835 7.992C61.3955 8.536 60.9955 9 60.4835 9.384C60.0035 9.768 59.4435 10.056 58.8035 10.248C58.1635 10.44 57.5075 10.536 56.8355 10.536C55.5555 10.536 54.4835 10.232 53.6195 9.624C52.7555 9.016 52.3235 8.056 52.3235 6.744C52.3235 6.04 52.4675 5.416 52.7555 4.872C53.0435 4.296 53.4275 3.832 53.9075 3.48C54.4195 3.096 54.9955 2.808 55.6355 2.616C56.3075 2.424 56.9955 2.328 57.6995 2.328C58.9475 2.328 60.0035 2.632 60.8675 3.24C61.7315 3.848 62.1635 4.792 62.1635 6.072ZM70.562 33H60.77L67.586 0.743998H77.426L70.562 33ZM90.4325 11.832C94.2405 11.832 97.0085 12.504 98.7365 13.848C100.561 15.256 101.473 17.592 101.473 20.856C101.473 22.872 101.137 24.696 100.465 26.328C99.7925 27.928 98.8485 29.256 97.6325 30.312C95.2005 32.36 91.6805 33.384 87.0725 33.384C83.1365 33.384 80.3205 32.632 78.6245 31.128C76.8005 29.56 75.8885 27.208 75.8885 24.072C75.8885 21.992 76.3045 20.104 77.1365 18.408C78.0005 16.712 79.2325 15.304 80.8325 14.184C83.1685 12.616 86.3685 11.832 90.4325 11.832ZM87.1685 30.12C87.9685 30.12 88.6565 29.672 89.2325 28.776C89.8405 27.88 90.3205 26.792 90.6725 25.512C91.0245 24.2 91.2805 22.856 91.4405 21.48C91.6325 20.072 91.7285 18.856 91.7285 17.832C91.7285 16.936 91.6325 16.264 91.4405 15.816C91.2805 15.336 90.9125 15.096 90.3365 15.096C89.4725 15.096 88.7205 15.56 88.0805 16.488C87.4725 17.416 86.9765 18.52 86.5925 19.8C86.2085 21.08 85.9205 22.392 85.7285 23.736C85.5685 25.08 85.4885 26.168 85.4885 27C85.4885 29.08 86.0485 30.12 87.1685 30.12ZM122.506 12.36H130.282L126.346 31.032C126.058 32.472 125.578 33.8 124.906 35.016C124.234 36.232 123.29 37.288 122.074 38.184C120.89 39.08 119.386 39.784 117.562 40.296C115.77 40.808 113.578 41.064 110.986 41.064C110.506 41.064 109.93 41.048 109.258 41.016C108.586 41.016 107.898 41 107.194 40.968C106.49 40.968 105.818 40.952 105.178 40.92C104.538 40.888 104.026 40.856 103.642 40.824L104.554 37.368C105.578 37.528 106.618 37.608 107.674 37.608C108.762 37.64 109.69 37.656 110.458 37.656C111.418 37.656 112.218 37.56 112.858 37.368C113.53 37.208 114.074 36.936 114.49 36.552C114.938 36.168 115.29 35.656 115.546 35.016C115.834 34.376 116.058 33.592 116.218 32.664L116.794 29.544H116.458C116.266 29.832 115.978 30.184 115.594 30.6C115.242 30.984 114.778 31.368 114.202 31.752C113.626 32.104 112.938 32.408 112.138 32.664C111.37 32.888 110.49 33 109.498 33C108.378 33 107.418 32.84 106.618 32.52C105.85 32.168 105.226 31.704 104.746 31.128C104.266 30.52 103.914 29.816 103.69 29.016C103.466 28.184 103.354 27.288 103.354 26.328C103.354 25.912 103.386 25.272 103.45 24.408C103.514 23.544 103.658 22.568 103.882 21.48C104.138 20.392 104.49 19.288 104.938 18.168C105.418 17.016 106.042 15.976 106.81 15.048C107.61 14.12 108.586 13.352 109.738 12.744C110.922 12.136 112.346 11.832 114.01 11.832C114.522 11.832 115.082 11.88 115.69 11.976C116.298 12.072 116.89 12.248 117.466 12.504C118.042 12.76 118.554 13.128 119.002 13.608C119.45 14.088 119.802 14.712 120.058 15.48H120.346L122.506 12.36ZM117.13 16.536C116.362 16.536 115.722 16.952 115.21 17.784C114.698 18.584 114.282 19.528 113.962 20.616C113.642 21.704 113.402 22.792 113.242 23.88C113.114 24.936 113.05 25.72 113.05 26.232C113.05 26.872 113.146 27.416 113.338 27.864C113.562 28.28 113.946 28.488 114.49 28.488C114.81 28.488 115.114 28.408 115.402 28.248C115.722 28.088 116.01 27.912 116.266 27.72C116.554 27.496 116.794 27.272 116.986 27.048C117.21 26.824 117.37 26.648 117.466 26.52L119.242 18.12C118.986 17.768 118.682 17.416 118.33 17.064C118.01 16.712 117.61 16.536 117.13 16.536ZM145.792 11.832C149.6 11.832 152.368 12.504 154.096 13.848C155.92 15.256 156.832 17.592 156.832 20.856C156.832 22.872 156.496 24.696 155.824 26.328C155.152 27.928 154.208 29.256 152.992 30.312C150.56 32.36 147.04 33.384 142.432 33.384C138.496 33.384 135.68 32.632 133.984 31.128C132.16 29.56 131.248 27.208 131.248 24.072C131.248 21.992 131.664 20.104 132.496 18.408C133.36 16.712 134.592 15.304 136.192 14.184C138.528 12.616 141.728 11.832 145.792 11.832ZM142.528 30.12C143.328 30.12 144.016 29.672 144.592 28.776C145.2 27.88 145.68 26.792 146.032 25.512C146.384 24.2 146.64 22.856 146.8 21.48C146.992 20.072 147.088 18.856 147.088 17.832C147.088 16.936 146.992 16.264 146.8 15.816C146.64 15.336 146.272 15.096 145.696 15.096C144.832 15.096 144.08 15.56 143.44 16.488C142.832 17.416 142.336 18.52 141.952 19.8C141.568 21.08 141.28 22.392 141.088 23.736C140.928 25.08 140.848 26.168 140.848 27C140.848 29.08 141.408 30.12 142.528 30.12Z" fill="#54F2F2"/>
</g>
<defs>
<filter id="filter0_d_5_92" x="0.52002" y="0.743988" width="160.312" height="48.32" filterUnits="userSpaceOnUse" color-interpolation-filters="sRGB">
<feFlood flood-opacity="0" result="BackgroundImageFix"/>
<feColorMatrix in="SourceAlpha" type="matrix" values="0 0 0 0 0 0 0 0 0 0 0 0 0 0 0 0 0 0 127 0" result="hardAlpha"/>
<feOffset dy="4"/>
<feGaussianBlur stdDeviation="2"/>
<feComposite in2="hardAlpha" operator="out"/>
<feColorMatrix type="matrix" values="0 0 0 0 0 0 0 0 0 0 0 0 0 0 0 0 0 0 0.25 0"/>
<feBlend mode="normal" in2="BackgroundImageFix" result="effect1_dropShadow_5_92"/>
<feBlend mode="normal" in="SourceGraphic" in2="effect1_dropShadow_5_92" result="shape"/>
</filter>
</defs>
</svg>
